<svg width="37" height="37" viewBox="0 0 37 37" fill="none" xmlns="http://www.w3.org/2000/svg">
<g clip-path="url(#clip0_2513_15031)">
<path d="M11.2454 10.2891H8.75316C7.77791 10.2891 7.30835 10.47 7.30835 11.2663V12.1711C7.30835 12.9673 7.81403 13.1482 8.75316 13.1482H9.33108C9.69228 13.1482 9.83676 13.3292 9.83676 13.9083V25.7793C9.83676 26.7565 10.0174 27.227 10.812 27.227H11.7511C12.5458 27.227 12.7264 26.7203 12.7264 25.7793V11.2663C12.6903 10.47 12.1846 10.2891 11.2454 10.2891Z" fill="white"/>
<path d="M28.3663 2.03777C27.2827 0.988195 25.9463 0.445312 24.3208 0.445312H12.1484C10.523 0.445312 9.15039 0.988195 8.1029 2.03777L1.6374 8.47997C0.626031 9.49335 0.0842285 10.8325 0.0842285 12.3163V24.7303C0.0842285 26.4313 0.662151 27.7704 1.818 28.8924L7.95842 35.045C9.15039 36.2394 10.523 36.8184 12.2567 36.7822H24.2847C25.9463 36.7822 27.3188 36.2756 28.583 35.045L34.7235 28.8924C35.8432 27.7704 36.4572 26.4313 36.4572 24.7303V12.3163C36.4572 10.8325 35.9154 9.49335 34.9041 8.47997L28.3663 2.03777ZM34.001 16.5508C34.001 16.9489 33.8204 17.1661 33.4231 17.1661H31.581V15.8632C31.581 14.886 31.4365 14.4155 30.6058 14.4155H29.775C28.9442 14.4155 28.7997 14.9222 28.7997 15.8632V17.1661H27.5355C26.5603 17.1661 26.0907 17.3109 26.0907 18.1433V19.0119C26.0907 19.8443 26.5964 19.9891 27.5355 19.9891H28.8359V21.292C28.8359 22.2692 28.9803 22.7397 29.8111 22.7397H30.6419C31.4726 22.7397 31.6171 22.233 31.6171 21.292V19.9891H33.4592C33.8204 19.9891 34.001 20.17 34.0372 20.532V24.7303C34.0372 25.7436 33.7482 26.5037 33.0258 27.1913L26.8854 33.344C26.163 34.0678 25.3683 34.3936 24.3931 34.3936H12.1122C11.137 34.3936 10.3424 34.0678 9.61995 33.344L3.47952 27.1913C2.75712 26.4675 2.43204 25.7436 2.46816 24.7303V12.6059C2.46816 11.5925 2.79324 10.7239 3.55176 9.96385L9.76443 3.63022C10.3785 3.01496 11.2092 2.7978 12.1122 2.7978H24.357C25.26 2.7978 26.0546 2.97876 26.7048 3.63022L32.9536 9.96385C33.676 10.7239 34.0372 11.5925 34.0372 12.6059V16.5508H34.001Z" fill="white"/>
<path d="M23.165 18.4338C24.7182 17.3119 24.7182 16.1537 24.7182 15.2127V14.2717C24.5376 11.1592 23.5262 9.96484 19.9142 9.96484C16.3022 9.96484 15.2908 11.1592 15.1102 14.2717V15.2127C15.1102 16.1537 15.1463 17.3119 16.6634 18.4338C14.8212 19.1576 14.6768 20.7139 14.6768 22.7769C14.6768 25.817 15.7604 27.3371 19.8781 27.4095C24.0319 27.3371 25.0794 25.817 25.0794 22.7769C25.1516 20.7139 25.0071 19.1576 23.165 18.4338ZM19.9503 12.5345C21.4673 12.5345 22.0814 13.0774 22.0814 14.9232C22.0814 16.6966 21.4673 17.3118 19.9503 17.3118C18.4333 17.3118 17.8192 16.6966 17.8192 14.9232C17.8192 13.0774 18.4333 12.5345 19.9503 12.5345ZM19.9503 24.8398C18.1804 24.8398 17.5664 24.1522 17.5664 22.4149C17.5664 20.6777 18.1804 19.8815 19.9503 19.8815C21.7202 19.8815 22.3342 20.6777 22.3342 22.4149C22.3342 24.1522 21.6841 24.8398 19.9503 24.8398Z" fill="white"/>
</g>
<defs>
<clipPath id="clip0_2513_15031">
<rect width="36.3007" height="36.3007" fill="white" transform="translate(0.0842285 0.445312)"/>
</clipPath>
</defs>
</svg>
